<?xml version="1.0" standalone="no"?>
<!DOCTYPE svg PUBLIC "-//W3C//DTD SVG 20010904//EN"
 "http://www.w3.org/TR/2001/REC-SVG-20010904/DTD/svg10.dtd">
<svg version="1.0" xmlns="http://www.w3.org/2000/svg"
 width="267.000000pt" height="267.000000pt" viewBox="0 0 267.000000 267.000000"
 preserveAspectRatio="xMidYMid meet">
<metadata>
Created by potrace 1.16, written by Peter Selinger 2001-2019
</metadata>
<g transform="translate(0.000000,267.000000) scale(0.100000,-0.100000)"
fill="#000000" stroke="none">
<path d="M0 1335 l0 -1335 1335 0 1335 0 0 1335 0 1335 -1335 0 -1335 0 0
-1335z m1761 737 c137 -45 241 -150 289 -291 19 -57 20 -84 20 -435 0 -338 -2
-380 -19 -435 -35 -113 -107 -203 -211 -264 -90 -52 -133 -57 -520 -57 -203 0
-374 5 -399 11 -154 35 -285 157 -332 310 -17 55 -19 95 -19 427 0 279 4 379
14 418 40 152 161 276 306 318 85 24 93 24 460 22 325 -2 349 -3 411 -24z"/>
<path d="M922 1931 c-101 -35 -181 -125 -202 -226 -7 -36 -10 -168 -8 -392 l3
-338 33 -67 c35 -72 79 -114 153 -148 41 -18 67 -20 420 -20 l376 0 61 31 c67
33 100 66 140 143 l27 51 0 375 0 375 -28 57 c-30 62 -83 115 -149 150 -42 23
-49 23 -408 25 -334 3 -370 1 -418 -16z m837 -116 c81 -41 50 -165 -41 -165
-73 0 -114 79 -72 138 28 40 69 50 113 27z m-304 -126 c201 -75 298 -305 209
-498 -34 -75 -112 -153 -188 -188 -52 -23 -74 -28 -151 -28 -82 0 -96 3 -157
33 -257 127 -286 476 -52 638 28 19 71 41 95 49 68 21 179 19 244 -6z"/>
<path d="M1275 1571 c-128 -33 -209 -165 -176 -287 49 -181 283 -235 404 -93
123 143 34 364 -155 384 -24 2 -56 0 -73 -4z"/>
</g>
</svg>
